<?xml version="1.0" encoding="utf-8"?>
<!-- Generator: Adobe Illustrator 24.1.1, SVG Export Plug-In . SVG Version: 6.00 Build 0)  -->
<svg version="1.1" id="Слой_1" xmlns="http://www.w3.org/2000/svg" xmlns:xlink="http://www.w3.org/1999/xlink" x="0px" y="0px"
	 viewBox="0 0 128 128" style="enable-background:new 0 0 128 128;" xml:space="preserve">
<style type="text/css">
	.st0{fill:#FFFFFF;}
</style>
<path class="st0" d="M91.6,30c-1.5-0.1-3-0.1-4.1,0V20c0-14.8-6.5-20-25-20c-21.1,0-30.7,6.6-33,22.7l-0.1,1
	c-1,6.6-1.9,12.9-1.9,47.3c0,7.6,7.1,18.7,8.9,21.5c-0.1,0.7-0.3,1.7-0.4,2.5c-0.3,1.3-0.4,2.7-0.5,4c0,0.7-0.9,1.9-1.9,3.3
	c-2.3,2.7-4,5.8-5,9.2c-0.9,3.6-1.6,7.3-2.1,11c-0.1,1,0.6,2,1.6,2.2c11.7,2.2,23.5,3.3,35.4,3.4c11.3,0.1,22.6-1.3,33.6-4.1
	c0.9-0.2,1.4-1,1.4-1.9c0-0.2,0-6-4.2-14c-1-1.7-2.1-3.4-3.3-5c-2-2.8-3.5-4.9-3.5-8c0-4.1,0.8-5.2,4.1-7.3c5.9-4,9.9-8.6,9.9-18.7
	V44.4C101.5,37.7,97.7,30.2,91.6,30z M89.4,84.3c-4.2,2.8-5.9,4.9-5.9,10.7c0,4.3,2,7.2,4.2,10.3c1.1,1.5,2.1,3,3,4.7
	c1.8,3.3,3,6.8,3.6,10.5c-6,1.4-12.1,2.4-18.2,2.9C73.2,112.5,68.5,107,62,107c-5.1,0-9.2,3.8-11.8,10.8c-0.4,1,0.2,2.2,1.2,2.6
	c1,0.4,2.2-0.2,2.6-1.2c1.1-3,3.6-8.2,8-8.2s7.7,4.3,10.1,12.7c-2.7,0.2-5.6,0.3-8.6,0.3c-11-0.1-21.9-1-32.8-2.9
	c0.4-2.9,0.9-5.7,1.7-8.6c0.9-2.9,2.4-5.6,4.3-7.9c1.5-2,2.7-3.6,2.7-5.6c0-0.3,0.2-1.7,0.4-2.8c4.1,4,6.5,5.8,10.6,5.8
	c3.1,0,5.1-2.6,6.8-4.7c0.6-0.8,1.8-2.3,2.3-2.3h4.8c0.7,0.7,1.4,1.5,2,2.3c1.7,2.2,3.6,4.7,6.2,4.7c2,0.2,4.1-0.3,5.9-1.2
	c1-0.5,1.4-1.6,1-2.7c-0.5-1-1.6-1.4-2.7-1c0,0-0.1,0-0.1,0.1c-1.3,0.7-2.7,0.9-4.1,0.8c-0.7,0-2.2-2.1-3-3.1c-1.5-2-3-3.9-5-3.9h-5
	c-2.4,0-3.9,2-5.4,3.9C53,96.3,51.7,98,50.5,98c-3.1,0-4.4-1.2-10.1-6.9L40,90.7C37.6,87.1,31.5,77,31.5,71c0-5.3,0-9.9,0.1-14
	c0.9,0.6,1.9,1,3,1c3.2-0.2,5.6-2.8,5.4-6c0.1-3.2-2.3-5.8-5.4-6c-1,0-2,0.3-2.8,0.9c0.1-5.7,0.3-9.8,0.5-12.9h2.2c1.1,0,2-0.9,2-2
	c0-1.1-0.9-2-2-2h-1.9c0.2-2.2,0.5-3.9,0.7-5.7l0.2-1c0.1-0.4,0.1-0.9,0.2-1.3h1.8c1.1,0,2-0.9,2-2s-0.9-2-2-2h-0.8
	c1-3.5,3-6.7,5.9-8.9V43c0,1.1,0.9,2,2,2s2-0.9,2-2V29h3c1.1,0,2-0.9,2-2s-0.9-2-2-2h-3v-8h3.2c1.1,0,2-0.9,2-2s-0.9-2-2-2h-3.2V7
	c0-0.1,0-0.1,0-0.2c3.5-1.4,7.2-2.3,11-2.5V42c0,1.1,0.9,2,2,2s2-0.9,2-2V27h3c1.1,0,2-0.9,2-2s-0.9-2-2-2h-3v-8h2.9
	c1.1,0,2-0.9,2-2s-0.9-2-2-2h-2.9V4.1c1,0,2-0.1,3-0.1c2.7,0,5.3,0.1,8,0.4V43c0,1.1,0.9,2,2,2s2-0.9,2-2V28h3c1.1,0,2-0.9,2-2
	s-0.9-2-2-2h-3v-8h2.6c1.1,0,2-0.9,2-2s-0.9-2-2-2h-2.6V5.2c7.4,2.1,9,6.9,9,14.8v25c-1-1.2-2.5-2-4.1-2c-3.2,0.2-5.6,2.8-5.4,6
	c-0.1,3.2,2.3,5.8,5.4,6c1.6,0,3.1-0.8,4.1-2v4c0,1.1,0.9,2,2,2s2-0.9,2-2V34c1.1,0,2.5,0,3.9,0c3.5,0.1,6.1,5.6,6.1,10.4V49h-3
	c-1.1,0-2,0.9-2,2s0.9,2,2,2h3v16c0,0.8,0,1.6-0.1,2.3c-0.8-2-2.7-3.2-4.9-3.3c-3.3,0-6,2.7-6,6s2.7,6,6,6c0.7,0,1.5-0.2,2.2-0.5
	C93.2,81.4,91.4,83.1,89.4,84.3z M33.1,52c0-1.1,0.7-2,1.5-2s1.4,0.9,1.4,2s-0.7,2-1.4,2S33.1,53.1,33.1,52z M80.9,49
	c0,1.1-0.7,2-1.4,2S78,50.1,78,49s0.7-2,1.4-2S80.9,47.9,80.9,49z M94,74c0,1.1-0.7,2-1.4,2s-1.4-0.9-1.4-2s0.7-2,1.4-2
	S94,72.9,94,74z"/>
<path class="st0" d="M61.8,63c-5.6,0-10.2,5.4-10.2,12s4.6,12,10.2,12S72,81.6,72,75S67.4,63,61.8,63z M61.8,83
	c-3.4,0-6.2-3.6-6.2-8s2.8-8,6.2-8s6.2,3.6,6.2,8S65.2,83,61.8,83z"/>
<path class="st0" d="M54.9,48c0.1-3.2-2.3-5.8-5.5-6c-3.2,0.2-5.6,2.8-5.4,6c-0.1,3.2,2.3,5.8,5.4,6C52.6,53.8,55,51.2,54.9,48z
	 M49.4,50c-0.8,0-1.4-0.9-1.4-2s0.7-2,1.4-2s1.5,0.9,1.5,2S50.2,50,49.4,50z"/>
<path class="st0" d="M64.4,54c3.2-0.2,5.6-2.8,5.4-6c0.3-3-1.9-5.7-4.9-6c-3-0.3-5.7,1.9-6,4.9c0,0.3,0,0.7,0,1
	C58.9,51.2,61.3,53.8,64.4,54z M64.4,46c0.8,0,1.4,0.9,1.4,2s-0.7,2-1.4,2S63,49.1,63,48S63.7,46,64.4,46z"/>
<path class="st0" d="M61.8,72c-1.6-0.3-3.2,0.8-3.5,2.5c-0.3,1.6,0.8,3.2,2.5,3.5c1.6,0.3,3.2-0.8,3.5-2.5c0-0.2,0-0.3,0-0.5
	C64.5,73.5,63.4,72.2,61.8,72C61.9,72,61.9,72,61.8,72z"/>
</svg>
