<svg width="629" height="509" xmlns="http://www.w3.org/2000/svg" preserveAspectRatio="xMidYMid meet">
 <metadata>Created by potrace 1.16, written by Peter Selinger 2001-2019</metadata>

 <g>
  <title>background</title>
  <rect fill="none" id="canvas_background" height="602" width="802" y="-1" x="-1"/>
 </g>
 <g>
  <title>Layer 1</title>
  <g id="svg_1" fill="#000000" transform="translate(0,509) scale(0.10000000149011612,-0.10000000149011612) ">
   <path fill="#ffffff" id="svg_2" d="m3105,4742c-17,-10 -38,-34 -48,-53c-27,-52 -315,-779 -306,-774c9,6 41,10 196,26c195,19 454,-7 646,-65l48,-14l-3,328l-3,328l-25,27c-34,36 -403,215 -443,215c-18,0 -46,-8 -62,-18z"/>
   <path fill="#ffffff" id="svg_3" d="m2930,3659c-85,-5 -166,-11 -180,-15c-14,-3 -49,-8 -79,-10c-110,-8 -483,-125 -493,-155c-2,-5 -14,-11 -27,-14c-12,-2 -63,-29 -112,-59c-83,-52 -88,-54 -76,-28c13,30 85,133 100,143c5,4 6,12 2,19c-5,8 -4,11 2,7c9,-6 93,73 93,86c0,3 -39,11 -87,17c-199,29 -439,-10 -581,-93c-25,-15 -30,-22 -20,-29c8,-5 4,-7 -13,-3c-20,5 -33,-1 -58,-24c-18,-17 -37,-31 -43,-31c-5,0 -6,-5 -2,-12c5,-7 3,-8 -5,-4c-14,9 -49,-21 -183,-158c-48,-49 -94,-103 -102,-120c-9,-17 -16,-27 -16,-21c0,11 -98,-121 -108,-145c-3,-8 -8,-17 -12,-20c-29,-23 -142,-250 -175,-350c-9,-30 -21,-63 -26,-72c-14,-27 -57,-206 -71,-293c-18,-117 -15,-408 6,-525c18,-95 53,-236 64,-255c4,-5 8,-18 9,-27c6,-37 56,-148 64,-142c5,3 6,-1 3,-9c-8,-22 122,-266 147,-275c5,-2 9,-10 9,-18c0,-8 5,-14 10,-14c6,0 10,-5 10,-11c0,-19 105,-149 117,-144c7,2 10,-2 7,-9c-6,-15 153,-186 173,-186c7,0 13,-4 13,-10c0,-17 124,-110 200,-149c146,-75 275,-105 450,-104c151,0 261,24 389,84c98,45 193,108 185,120c-10,17 3,9 37,-21c40,-36 165,-110 184,-110c8,0 16,-4 19,-9c10,-15 139,-51 228,-62c230,-31 471,31 657,170c29,22 74,40 57,24c-9,-10 53,-52 148,-100c250,-126 556,-132 818,-16c32,14 55,29 52,34c-3,5 1,6 8,4c8,-3 23,4 35,15c12,11 26,20 31,20c18,0 182,143 175,153c-3,5 -2,7 4,4c13,-8 152,140 213,229c101,144 131,194 124,205c-4,8 -3,10 4,5c10,-6 46,59 108,199c28,63 53,135 48,135c-4,0 -2,6 4,12c13,17 46,142 68,258c25,132 25,406 0,554c-17,108 -60,265 -91,338c-8,21 -15,40 -15,43c0,3 -16,40 -36,82c-50,111 -152,281 -194,322c-19,19 -28,31 -20,26c13,-8 -16,31 -90,120c-66,79 -159,167 -171,159c-8,-4 -10,-3 -5,4c12,20 -154,138 -264,188c-54,24 -122,44 -155,47c-16,1 -33,6 -37,12c-9,13 -335,13 -363,1c-11,-5 -28,-8 -39,-7c-13,2 -16,-1 -11,-11c17,-29 38,-47 48,-41c5,3 7,2 4,-4c-4,-5 7,-23 24,-39c17,-16 47,-54 67,-84c19,-30 38,-57 41,-60c3,-3 7,-16 9,-29c4,-23 4,-23 -17,-4c-31,29 -156,98 -241,134c-41,18 -84,36 -95,41c-12,5 -27,10 -35,12c-8,2 -27,8 -43,14c-97,40 -316,78 -500,87c-62,3 -137,7 -167,9c-30,1 -125,-1 -210,-5zm-477,-684c12,-8 33,-35 47,-60c13,-25 28,-45 32,-45c5,0 8,-5 8,-10c0,-21 234,-389 243,-383c6,3 7,1 3,-6c-4,-6 1,-23 12,-39c29,-41 35,-70 22,-103l-13,-29l-390,2l-391,3l-15,26c-13,23 -12,30 8,73c13,26 45,80 72,122c27,41 49,81 49,89c0,8 4,15 10,15c8,0 41,52 40,65c0,3 9,14 20,25c12,12 18,25 15,30c-4,6 -2,10 4,10c6,0 35,42 66,93c83,140 105,157 158,122zm1374,-7c11,-13 31,-40 45,-60c14,-21 28,-35 33,-30c5,4 5,2 2,-5c-7,-11 114,-218 140,-240c8,-6 14,-13 13,-15c-4,-7 24,-58 32,-58c4,0 8,-5 8,-11c0,-6 21,-45 47,-86c53,-83 57,-97 42,-135l-11,-28l-383,0c-211,0 -390,3 -399,6c-8,3 -18,21 -22,39c-5,27 2,45 44,113c28,44 48,83 44,86c-3,3 1,6 8,6c7,0 11,3 8,6c-3,3 5,17 18,31c13,14 24,29 24,34c0,4 16,31 35,60c19,29 31,57 28,63c-3,6 -3,8 2,4c5,-5 36,38 71,95c86,142 91,147 123,147c16,0 36,-9 48,-22zm-2027,-1023c272,-145 534,-239 785,-283l100,-18l7,-101c7,-103 20,-149 40,-137c6,4 8,3 5,-3c-4,-6 3,-19 14,-29c31,-28 215,-33 270,-8c22,9 39,23 39,31c0,7 4,13 10,13c14,0 32,76 30,129c-1,25 -1,52 -1,59c1,8 23,12 74,12c166,0 373,29 582,82c66,17 130,32 143,35c12,3 22,10 22,15c0,5 4,7 10,3c8,-5 122,34 205,71c81,36 208,97 274,133c102,56 153,57 211,3c40,-39 46,-58 41,-125c-3,-41 -84,-213 -149,-320c-27,-44 -181,-197 -251,-250l-65,-48l-15,42c-26,69 -55,83 -179,87c-123,4 -158,-8 -192,-65c-17,-29 -20,-52 -20,-143l0,-109l-42,-11c-24,-6 -59,-14 -78,-19c-119,-31 -394,-61 -567,-61c-191,0 -482,33 -608,70c-16,4 -42,11 -57,14l-28,6l0,109c0,109 -5,145 -20,136c-4,-3 -7,3 -6,12c0,9 -14,27 -33,40c-30,20 -46,23 -133,23c-143,0 -185,-24 -207,-117c-5,-21 -9,-31 -10,-23c-1,9 -14,23 -29,32c-36,21 -143,108 -159,128c-6,8 -17,15 -25,15c-7,0 -13,5 -14,10c-2,24 -17,44 -28,38c-6,-3 -8,-3 -4,1c4,4 -13,35 -38,68c-46,63 -144,249 -144,274c0,9 -4,13 -8,10c-5,-3 -10,7 -10,22c-1,15 -3,34 -4,42c-6,61 37,134 85,143c63,12 94,6 177,-38z"/>
  </g>
 </g>
</svg>